<?xml version="1.0" standalone="no"?>
<!DOCTYPE svg PUBLIC "-//W3C//DTD SVG 20010904//EN"
 "http://www.w3.org/TR/2001/REC-SVG-20010904/DTD/svg10.dtd">
<svg version="1.0" xmlns="http://www.w3.org/2000/svg"
 width="612.000000pt" height="612.000000pt" viewBox="0 0 612.000000 612.000000"
 preserveAspectRatio="xMidYMid meet">

<g transform="translate(0.000000,612.000000) scale(0.100000,-0.100000)"
fill="#000000" stroke="none">
<path d="M3025 5958 c-194 -16 -306 -35 -334 -56 -38 -28 -40 -76 -6 -112 22
-23 27 -39 32 -103 l6 -75 -124 -22 c-68 -12 -154 -28 -191 -35 -37 -6 -70
-10 -73 -7 -3 3 -5 15 -5 27 0 28 -47 61 -155 111 -107 49 -135 54 -203 39
-31 -7 -102 -22 -157 -34 -55 -12 -134 -33 -175 -46 -41 -13 -87 -27 -102 -30
-15 -3 -39 -15 -53 -28 l-26 -22 32 -68 c21 -46 32 -85 33 -120 l1 -51 -117
-42 c-276 -99 -320 -157 -383 -514 -34 -198 -70 -518 -105 -954 -16 -203 -34
-374 -39 -380 -5 -6 -23 -19 -40 -29 l-31 -18 0 26 c0 14 -11 106 -24 203 -14
97 -28 203 -32 235 -6 54 -9 59 -45 77 -21 11 -44 20 -51 20 -21 0 -212 -93
-225 -110 -21 -26 -102 -223 -109 -266 -7 -49 2 -69 67 -145 58 -67 69 -93 69
-164 0 -50 2 -56 30 -70 16 -8 44 -15 62 -15 29 0 48 -15 156 -125 67 -69 135
-144 152 -167 l31 -42 -7 -127 c-6 -102 -3 -145 11 -219 11 -59 21 -87 26 -78
5 7 9 72 9 144 0 71 5 191 11 265 6 73 11 200 12 280 l2 145 45 -8 c131 -26
258 -57 470 -115 129 -35 357 -96 505 -134 149 -39 299 -79 335 -89 l65 -19 2
-210 2 -210 -37 -6 c-20 -3 -49 -8 -64 -10 -28 -4 -28 -4 -28 51 0 65 -7 81
-70 154 -59 70 -70 90 -70 135 0 56 24 38 28 -21 4 -55 12 -64 65 -64 l37 0 0
50 c0 86 -28 121 -113 140 -90 20 -127 -17 -127 -126 0 -39 41 -121 70 -139 7
-4 24 -26 39 -50 21 -33 26 -51 23 -84 -3 -26 -9 -41 -18 -41 -11 0 -14 16
-14 64 0 63 0 64 -31 70 -70 14 -69 15 -69 -84 0 -65 -3 -90 -12 -90 -10 0
-13 25 -13 93 l0 93 -62 83 c-62 81 -81 130 -68 171 13 41 30 14 30 -48 l0
-60 43 -7 c24 -4 47 -4 50 0 12 12 1 140 -14 163 -20 31 -72 52 -127 52 -66 0
-81 -22 -85 -124 l-4 -81 66 -99 c55 -83 66 -105 66 -141 0 -24 -6 -48 -14
-54 -12 -10 -15 -5 -21 28 -4 22 -5 57 -3 78 l3 38 -54 3 -53 3 4 -110 c6
-192 -15 -120 -44 145 -15 137 -31 274 -35 304 l-8 55 -50 12 c-82 19 -82 19
-89 -39 -16 -128 -88 -576 -96 -603 -9 -30 -8 64 6 495 l6 186 -67 13 c-38 8
-70 10 -74 5 -5 -5 -19 -84 -31 -177 -13 -92 -24 -166 -26 -164 -2 2 -8 68
-14 148 -6 79 -13 163 -16 185 l-5 42 -65 12 c-36 7 -67 11 -69 9 -2 -3 -8
-130 -14 -284 -6 -154 -14 -335 -18 -403 l-6 -122 34 0 c19 0 39 4 45 8 8 4
15 76 20 202 l9 195 18 -165 c9 -91 17 -180 17 -197 0 -29 3 -33 28 -34 20 -1
17 -3 -13 -8 -28 -4 -43 -13 -50 -29 -7 -16 -18 -22 -40 -22 -16 0 -37 -5 -45
-11 -16 -12 40 -10 445 16 484 31 745 37 1870 42 l1160 5 50 -45 50 -46 -385
-1 c-417 -1 -653 -5 -1315 -20 -236 -5 -551 -12 -700 -15 -337 -7 -643 -21
-890 -40 -258 -20 -248 -18 -269 -65 -9 -22 -30 -49 -47 -60 -16 -12 -29 -28
-29 -36 0 -18 15 -18 450 1 463 19 1246 37 2620 61 211 3 366 10 383 16 20 8
31 8 40 -1 6 -6 33 -11 59 -11 38 0 50 -4 54 -18 3 -9 12 -31 19 -48 13 -31
13 -32 -17 -38 -17 -3 -44 -6 -60 -6 -32 0 -32 3 -4 -124 l11 -51 53 -5 c36
-4 59 -13 74 -28 22 -22 22 -24 4 -37 -10 -8 -39 -17 -64 -21 l-45 -7 51 -19
c29 -11 68 -34 87 -53 19 -18 38 -29 41 -24 3 5 15 7 27 5 12 -3 39 -8 60 -11
28 -5 40 -12 48 -32 6 -17 14 -23 25 -19 9 3 20 6 25 6 16 0 -2 54 -23 73 -12
10 -37 17 -62 17 -70 0 -86 8 -80 40 7 34 -7 63 -54 112 l-35 37 32 47 c21 32
29 54 25 68 -4 12 -7 21 -8 22 0 0 -20 15 -43 33 -51 39 -53 56 -18 135 41 94
34 115 -65 190 l-60 46 -923 0 c-875 0 -930 1 -1061 20 -75 11 -139 20 -142
20 -2 0 -3 114 -2 253 l3 252 235 86 c129 47 408 145 620 218 212 74 482 170
600 213 286 106 409 148 437 148 13 0 23 5 23 10 0 6 7 10 15 10 8 0 15 -9 15
-19 0 -12 62 -79 158 -171 l157 -151 63 4 c47 4 62 1 62 -8 0 -8 -15 -17 -32
-20 -18 -4 -36 -9 -40 -11 -10 -6 455 -446 681 -644 l63 -55 9 -80 c5 -44 16
-127 25 -185 11 -76 12 -114 5 -133 -10 -25 -9 -27 15 -27 29 0 29 -13 -12
275 -14 94 -33 229 -43 300 -14 104 -25 147 -55 215 -21 47 -64 148 -96 225
-32 77 -88 207 -124 289 -93 209 -130 315 -117 341 5 11 13 42 16 68 4 32 12
50 23 54 42 15 83 68 101 133 55 190 55 237 -5 346 -25 46 -52 84 -60 84 -18
0 -19 5 17 -81 34 -82 46 -161 31 -199 -9 -21 -11 -17 -11 32 l-1 57 -37 10
c-21 5 -85 17 -142 26 -96 15 -105 15 -128 -1 -25 -16 -26 -18 -20 -108 4 -50
9 -117 13 -150 6 -52 5 -58 -11 -55 -11 3 -19 15 -21 33 -4 41 -21 117 -33
148 -7 19 -18 28 -38 30 -24 3 -31 11 -48 58 -10 30 -27 63 -36 73 -15 17 -15
12 -1 -60 11 -55 15 -135 14 -273 -1 -107 3 -212 7 -232 8 -33 6 -39 -15 -52
-15 -11 -25 -12 -29 -5 -4 5 -11 119 -16 252 -5 133 -13 266 -19 296 -5 29
-10 69 -10 88 l0 34 -104 -7 c-70 -5 -105 -3 -110 4 -4 7 8 13 31 18 21 3 69
12 106 20 38 8 70 14 73 14 9 0 3 89 -11 155 -17 80 -76 184 -292 510 -146
222 -181 268 -194 259 -15 -9 -10 -78 11 -146 10 -35 26 -126 35 -203 8 -77
24 -185 35 -240 34 -170 48 -280 75 -560 27 -287 34 -350 42 -377 7 -27 -24
-22 -42 5 -9 14 -22 86 -33 183 -11 87 -48 331 -83 542 l-64 382 -80 39 c-210
103 -357 119 -685 76 -225 -30 -502 -75 -611 -100 -63 -15 -154 -29 -203 -32
-83 -6 -88 -5 -84 13 5 31 1 30 578 119 118 18 256 39 305 46 50 8 162 13 250
13 184 0 252 -13 385 -73 47 -21 97 -42 113 -45 27 -6 27 -6 27 46 0 29 -11
132 -26 228 l-26 175 -41 38 c-46 43 -177 109 -250 126 -171 41 -374 34 -719
-23 -112 -19 -240 -37 -285 -41 -100 -8 -336 -68 -342 -86 -2 -7 2 -425 10
-928 8 -504 14 -975 14 -1046 l0 -131 -35 -58 -35 -57 -8 288 c-4 158 -6 659
-4 1112 l4 824 -91 -6 c-103 -8 -204 -30 -386 -87 -69 -21 -190 -55 -270 -75
-142 -36 -265 -85 -362 -145 -59 -36 -63 -37 -42 -5 35 54 182 129 369 189
162 52 534 147 690 177 88 16 250 48 360 69 609 121 955 147 1155 87 216 -64
247 -88 405 -297 168 -224 229 -321 360 -575 28 -55 61 -117 73 -138 12 -21
22 -51 22 -67 0 -16 5 -53 11 -82 11 -49 12 -51 21 -28 5 14 10 57 11 95 l2
70 38 3 c32 3 37 7 37 28 0 24 -2 25 -51 23 l-50 -3 -68 130 c-117 224 -248
425 -430 659 -102 131 -121 149 -185 182 -49 25 -238 73 -289 73 -51 0 -82 25
-114 92 -34 72 -90 124 -175 163 -59 28 -137 30 -353 13z m317 -54 c57 -30
145 -113 166 -158 12 -25 22 -48 22 -51 0 -3 -28 -5 -63 -5 l-62 0 -18 48 c-9
26 -36 73 -59 105 -37 48 -47 56 -68 52 -14 -3 -106 -9 -205 -15 -100 -5 -198
-15 -220 -23 -44 -15 -85 -65 -85 -104 0 -14 -4 -21 -10 -18 -5 3 -10 16 -10
29 0 13 -9 33 -20 46 -11 13 -20 25 -20 26 0 2 19 13 42 25 28 14 73 24 137
30 53 5 157 15 231 23 143 15 198 12 242 -10z m-30 -111 c18 -20 50 -94 44
-100 -2 -2 -71 -13 -152 -23 -134 -18 -251 -37 -341 -56 -23 -4 -33 -3 -33 5
0 25 30 67 71 100 39 32 53 36 167 53 69 10 139 22 156 27 48 14 72 12 88 -6z
m-1212 -132 c30 -15 71 -34 91 -40 46 -15 79 -50 82 -86 2 -26 -2 -30 -36 -38
-45 -11 -48 -8 -71 55 -10 26 -33 61 -52 78 -32 28 -41 30 -112 31 l-77 1 50
13 c68 18 63 18 125 -14z m-183 -7 c-3 -3 -12 -4 -19 -1 -8 3 -5 6 6 6 11 1
17 -2 13 -5z m-117 -29 c-47 -13 -121 -36 -165 -52 -65 -23 -81 -32 -83 -50
-2 -13 -7 -23 -12 -23 -14 0 -33 41 -23 50 7 7 255 82 308 93 64 14 47 2 -25
-18z m314 -57 c39 -61 30 -98 -24 -98 -14 0 -102 -22 -196 -49 -169 -49 -264
-69 -264 -57 0 19 43 87 66 105 14 11 83 38 153 60 214 68 243 72 265 39z
m1922 -500 l7 -78 -73 30 c-41 17 -75 32 -77 33 -1 2 16 28 38 58 23 30 49 69
58 88 l16 33 12 -43 c7 -23 16 -78 19 -121z m238 -133 c82 -115 84 -124 25
-159 -27 -16 -28 -16 -58 22 -21 28 -33 57 -40 103 -11 65 -14 139 -7 139 3 0
39 -47 80 -105z m-3110 23 c-17 -114 -45 -276 -54 -308 -6 -19 -24 -51 -41
-70 -29 -32 -31 -33 -25 -10 4 14 13 63 21 111 24 144 44 230 65 275 25 57 42
58 34 2z m2654 -54 c85 -17 184 -59 220 -94 31 -29 42 -61 42 -120 0 -26 8
-90 19 -141 10 -52 21 -113 25 -136 6 -42 5 -43 -21 -43 -44 -1 -108 -35 -137
-72 -14 -19 -26 -39 -26 -45 0 -6 -18 -31 -40 -56 -28 -32 -67 -59 -133 -91
-151 -75 -334 -114 -722 -156 -104 -11 -241 -27 -304 -36 -62 -8 -116 -12
-119 -9 -12 12 85 183 142 250 202 238 378 415 556 563 112 93 148 117 213
142 43 16 88 37 100 45 27 19 88 19 185 -1z m-1518 -32 c0 -28 0 -28 -112 -45
-62 -10 -268 -53 -458 -97 -190 -44 -389 -89 -443 -100 -116 -23 -132 -31
-174 -79 -23 -26 -32 -31 -33 -19 0 25 57 86 103 110 22 11 95 31 161 44 112
22 614 136 836 189 124 30 120 30 120 -3z m340 -169 c-1 -54 -56 -131 -151
-213 l-60 -52 3 132 3 133 50 5 c28 2 52 6 54 8 2 2 26 4 53 4 39 0 48 -3 48
-17z m-340 -206 c0 -206 -7 -241 -62 -327 -19 -30 -61 -111 -91 -179 -31 -68
-68 -141 -81 -161 -23 -35 -29 -38 -99 -48 -119 -18 -321 -40 -472 -52 -77 -6
-161 -13 -187 -16 -62 -6 -62 4 -2 116 109 203 291 424 441 535 145 108 411
273 483 300 73 28 70 36 70 -168z m-1220 -64 c0 -16 -4 -86 -10 -158 -5 -71
-14 -294 -21 -495 -6 -201 -12 -366 -13 -367 -1 -1 -20 1 -44 4 l-42 6 5 76
c27 393 39 546 56 730 10 118 19 218 19 223 0 4 11 8 25 8 21 0 25 -5 25 -27z
m3910 -543 c0 -110 -2 -130 -15 -130 -22 0 -33 37 -41 130 -6 65 -4 84 10 105
9 14 23 25 31 25 12 0 15 -22 15 -130z m-4312 -6 c28 -8 28 -22 0 -26 -20 -3
-25 -13 -38 -89 -9 -47 -22 -99 -29 -116 -11 -28 -10 -36 23 -101 50 -99 25
-99 -41 -1 -29 42 -62 80 -73 84 -14 4 -41 -4 -80 -24 l-59 -31 25 66 c40 106
60 139 113 184 64 53 107 67 159 54z m4152 -160 c0 -4 -35 -43 -77 -87 -43
-44 -93 -96 -111 -115 -22 -23 -36 -32 -43 -25 -19 19 11 57 97 123 47 36 95
75 106 88 22 23 28 26 28 16z m-525 -14 c3 -5 0 -10 -7 -10 -7 0 -109 -31
-228 -69 -118 -38 -300 -90 -405 -115 -104 -25 -377 -102 -605 -170 -491 -147
-680 -198 -680 -185 0 6 11 27 25 47 14 20 25 44 25 53 0 12 20 20 88 33 48
10 254 60 457 111 204 51 440 110 525 130 85 20 241 60 345 90 105 30 220 59
257 64 37 5 75 14 85 20 23 13 110 14 118 1z m779 -163 c43 -89 141 -302 217
-473 120 -268 139 -318 139 -362 0 -28 -4 -53 -9 -56 -9 -6 -31 75 -31 110 0
47 -317 712 -406 852 -34 52 -40 72 -27 85 23 24 42 -2 117 -156z m-58 -71
c19 -37 34 -70 32 -72 -4 -3 -99 168 -106 191 -8 24 42 -56 74 -119z m-216
-109 c19 -23 80 -94 135 -157 288 -329 334 -385 323 -395 -11 -11 -538 540
-538 562 0 12 22 33 35 33 5 0 26 -19 45 -43z m-3535 -23 c210 -23 925 -117
985 -129 24 -5 59 -59 47 -71 -14 -14 -420 50 -841 132 -127 25 -293 56 -370
69 -139 25 -195 42 -101 30 28 -3 154 -17 280 -31z m-384 -117 c17 -41 5 -43
-41 -7 -35 28 -40 37 -40 73 l0 40 34 -39 c19 -21 40 -52 47 -67z m-315 67
c12 -3 26 -16 32 -28 6 -13 78 -83 161 -156 139 -121 166 -150 143 -150 -16 0
-87 56 -169 133 -44 41 -99 87 -122 102 -25 17 -41 35 -41 47 0 16 -5 19 -20
14 -11 -3 -29 -9 -40 -12 -30 -9 -27 34 3 46 28 11 27 11 53 4z m999 -662
c-13 -13 -15 10 -8 79 l8 74 3 -74 c2 -40 0 -76 -3 -79z m-272 -152 c-8 -143
-8 -145 -32 -148 -22 -3 -23 -1 -18 30 3 18 16 98 29 178 26 165 32 149 21
-60z m287 23 c0 -16 3 -51 6 -79 l6 -52 -36 -4 -37 -4 6 65 c9 89 13 101 36
101 14 0 19 -7 19 -27z"/>
<path d="M4787 4626 c3 -14 6 -26 7 -26 0 0 42 -9 91 -19 126 -26 159 -42 197
-95 17 -25 38 -46 46 -46 15 0 12 16 -19 85 -19 42 -20 43 -128 79 -60 20
-130 39 -154 42 -44 6 -45 6 -40 -20z"/>
<path d="M4996 4521 c-8 -12 3 -61 16 -78 5 -6 15 -10 22 -7 11 4 11 13 1 47
-12 41 -28 57 -39 38z"/>
<path d="M5052 4365 c6 -14 9 -27 7 -29 -2 -2 -28 1 -57 6 -40 8 -56 8 -65 -1
-17 -17 4 -28 72 -36 31 -3 64 -8 74 -11 14 -4 17 1 17 26 0 42 -16 70 -40 70
-17 0 -18 -3 -8 -25z"/>
<path d="M4080 3400 c-47 -16 -94 -32 -105 -35 -27 -10 -23 -9 -78 -24 -26 -8
-50 -17 -52 -21 -3 -4 0 -43 5 -86 5 -44 12 -104 15 -134 25 -261 45 -469 50
-540 9 -123 7 -120 71 -120 51 0 54 2 54 24 0 22 -24 265 -60 596 -10 99 -22
307 -14 255 11 -74 13 -77 43 -70 27 6 28 4 33 -40 3 -25 7 -48 9 -50 2 -2 28
2 57 7 l53 11 -7 57 -6 57 31 6 c26 5 30 10 27 29 -3 13 -5 42 -5 66 -1 51 -3
51 -121 12z"/>
<path d="M3684 3276 c-75 -33 -101 -108 -85 -246 9 -87 14 -99 50 -150 113
-156 112 -154 123 -235 7 -52 7 -80 0 -87 -20 -20 -30 3 -37 90 -4 49 -10 95
-15 102 -5 9 -21 11 -50 7 -23 -3 -43 -7 -45 -9 -1 -1 2 -55 7 -118 10 -129
24 -165 78 -193 42 -22 102 -17 139 11 41 30 51 90 36 219 -14 121 -28 156
-100 248 -64 83 -75 106 -82 180 -5 54 -3 65 9 65 12 0 17 -19 23 -86 l7 -85
31 6 c74 15 70 8 62 104 -3 47 -11 103 -16 123 -16 63 -68 83 -135 54z"/>
<path d="M3511 3212 l-43 -14 5 -52 c4 -28 9 -96 12 -151 l5 -100 -38 140
c-42 156 -36 150 -120 121 l-37 -13 4 -89 c2 -49 11 -213 20 -364 l16 -275 45
3 c25 2 47 6 49 8 2 2 -1 79 -8 170 -6 92 -10 168 -8 170 1 2 23 -74 47 -169
l45 -172 63 -3 63 -3 -5 43 c-6 49 -10 90 -30 338 -9 96 -18 225 -22 285 -9
147 -8 146 -63 127z"/>
<path d="M4087 3123 c-38 -4 -38 -5 -33 -41 8 -49 32 -270 51 -466 9 -87 18
-163 21 -167 4 -6 102 -1 112 6 1 1 -4 53 -12 116 -8 63 -24 204 -36 314 -25
241 -26 245 -48 243 -9 -1 -34 -3 -55 -5z"/>
<path d="M3118 3089 l-57 -20 -5 -52 c-3 -29 -15 -164 -26 -302 -11 -137 -23
-261 -27 -275 l-6 -25 -8 30 c-5 17 -11 73 -15 125 -6 107 -18 147 -44 155
-18 6 -17 8 6 42 20 30 24 48 24 107 0 130 -34 152 -165 113 l-80 -24 -2 -244
c-1 -134 0 -263 3 -286 l5 -43 59 0 59 0 -6 146 c-5 124 -4 146 8 142 11 -3
15 -35 20 -129 3 -68 9 -131 13 -140 6 -13 24 -15 124 -11 64 2 119 6 120 7 5
4 9 55 11 128 1 53 3 57 25 57 23 0 25 -5 37 -90 l12 -90 60 0 c59 0 59 0 55
28 -27 177 -125 672 -133 671 -5 0 -36 -10 -67 -20z m-273 -249 c0 -50 -4 -75
-12 -77 -10 -4 -13 16 -13 77 0 61 3 81 13 78 8 -3 12 -28 12 -78z m309 -82
c4 -40 3 -68 -3 -68 -11 0 -18 58 -13 106 6 47 8 41 16 -38z"/>
<path d="M2563 2917 l-103 -32 0 -33 c0 -32 1 -33 30 -27 l30 7 0 -227 0 -226
58 3 57 3 0 239 0 240 25 6 c20 5 26 13 28 43 4 45 7 45 -125 4z"/>
<path d="M5164 2235 c3 -9 6 -19 6 -21 0 -2 12 -4 26 -4 35 0 74 -29 120 -90
36 -47 64 -64 64 -39 0 15 -110 129 -140 144 -14 7 -38 15 -54 19 -24 6 -27 4
-22 -9z"/>
<path d="M5092 2175 c-7 -15 -8 -25 -2 -25 13 0 32 38 21 44 -4 3 -13 -6 -19
-19z"/>
<path d="M5570 2021 c25 -49 41 -169 22 -157 -7 4 -12 24 -12 44 0 45 -14 72
-30 56 -13 -13 -49 -175 -51 -229 -1 -36 -2 -33 -11 20 -9 61 -5 236 8 268 4
12 1 17 -9 17 -26 0 -30 -59 -23 -300 l6 -225 -25 -30 -25 -30 3 250 c2 257
-3 315 -30 315 -11 0 -14 -7 -10 -22 3 -13 8 -66 11 -118 l6 -95 -14 67 c-14
65 -49 158 -60 158 -3 0 -15 -20 -27 -45 -12 -25 -35 -55 -51 -67 l-31 -21 7
-120 c7 -111 6 -120 -12 -133 -18 -13 -20 -26 -20 -141 0 -71 0 -155 -1 -188
l-2 -60 -53 59 c-49 54 -54 65 -60 120 -3 32 -8 61 -10 64 -9 8 -46 -19 -46
-35 0 -11 -6 -14 -21 -10 -12 3 -32 2 -45 -3 -19 -7 -24 -6 -24 5 0 18 -29 20
-35 3 -8 -21 11 -222 35 -384 13 -83 20 -162 17 -175 -11 -42 -69 -109 -94
-109 -21 0 -19 3 17 36 48 43 52 78 19 170 -11 32 -27 111 -35 174 -20 156
-33 210 -50 210 -13 0 -14 -24 -12 -148 l3 -147 -32 -66 c-18 -36 -52 -84 -78
-108 -25 -23 -45 -51 -45 -62 0 -14 -7 -19 -27 -19 -16 0 -57 -9 -91 -20 -45
-14 -92 -20 -158 -20 l-94 0 0 38 c0 40 -120 407 -140 426 -12 12 -793 17
-804 5 -4 -3 16 -78 44 -165 71 -222 79 -241 107 -274 l25 -30 -1239 0 c-1391
0 -1330 -3 -1360 67 -8 20 -30 113 -50 207 -39 191 -41 263 -6 297 28 28 136
37 538 44 335 6 578 19 631 34 l29 8 -28 12 c-16 6 -51 9 -80 6 -88 -10 -948
21 -987 35 -53 19 -57 29 -8 19 24 -4 135 -8 248 -8 113 -1 466 -6 786 -13
583 -12 984 -7 1849 22 414 14 485 19 485 34 0 22 69 93 112 116 l43 22 -180
-6 c-565 -18 -1628 -28 -2380 -22 -842 7 -998 10 -1038 25 -21 8 -21 8 6 34
18 19 36 27 59 27 18 -1 528 1 1133 4 1069 5 2027 18 2269 32 l119 6 -7 87
c-4 47 -8 86 -9 87 -1 1 -119 -2 -262 -7 -274 -8 -1379 -24 -2516 -35 l-676
-7 5 -65 c3 -48 1 -66 -9 -73 -11 -6 -17 7 -29 64 -15 70 -16 72 -47 75 -39 4
-41 15 -8 48 28 28 24 49 -13 62 -24 8 -29 4 -59 -41 -38 -56 -42 -96 -12
-123 42 -38 43 -51 3 -105 l-36 -50 26 -50 26 -50 -30 -26 c-39 -32 -50 -53
-60 -116 -11 -67 3 -181 35 -288 14 -46 35 -140 46 -209 11 -69 27 -141 37
-160 24 -48 70 -76 160 -95 123 -27 114 -19 90 -72 -25 -58 -28 -132 -5 -167
37 -56 55 -61 257 -63 113 -1 251 -10 355 -22 94 -12 223 -21 287 -21 130 0
158 -7 197 -49 36 -38 86 -51 201 -51 101 0 256 -19 365 -45 89 -20 105 -19
162 10 83 43 163 48 441 25 373 -29 512 -33 932 -22 455 12 478 17 656 113
101 55 121 71 189 148 100 113 139 192 138 275 0 35 -6 72 -12 84 -17 32 54
170 124 242 46 47 67 84 146 255 100 216 107 248 81 355 -6 25 -11 90 -12 146
0 107 -19 192 -46 215 -13 10 -11 3 6 -30z m-322 -489 c2 -14 -2 -22 -11 -22
-17 0 -30 27 -21 41 9 16 29 4 32 -19z m-1139 -339 c15 -30 71 -232 71 -258 0
-33 -62 -101 -105 -115 -19 -6 -51 -8 -72 -5 -76 13 -153 38 -153 49 0 7 -5
17 -12 24 -9 9 -19 3 -44 -26 -32 -37 -32 -37 -110 -37 -105 0 -150 22 -183
91 -52 108 -34 192 53 233 72 35 146 23 185 -29 27 -37 32 -37 53 -1 33 58
113 89 235 90 59 1 74 -2 82 -16z m988 -95 c33 -31 29 -60 -9 -83 -18 -10 -47
-34 -64 -53 l-32 -34 -7 62 c-7 60 -6 63 26 96 38 40 54 42 86 12z m-864 -280
l16 -48 -87 1 c-79 1 -84 2 -52 12 19 6 50 28 70 48 19 20 35 36 36 36 1 -1 8
-23 17 -49z m-373 -13 c16 -8 46 -19 67 -24 30 -7 14 -9 -76 -10 l-114 -1 44
24 c24 14 45 25 47 25 2 1 16 -6 32 -14z m-240 -28 c8 -3 -6 -6 -32 -6 -41 -1
-48 2 -48 18 0 19 2 19 33 7 17 -7 39 -16 47 -19z m1040 -62 c0 -30 -3 -35
-24 -35 -18 0 -25 7 -29 27 -7 35 -2 43 29 43 21 0 24 -5 24 -35z"/>
<path d="M5036 1907 c-9 -31 -20 -342 -13 -360 4 -10 13 -13 26 -10 20 5 21
12 21 185 0 140 -3 182 -14 193 -12 12 -15 11 -20 -8z"/>
<path d="M910 1327 c-48 -16 -65 -55 -52 -116 16 -81 83 -295 98 -319 35 -54
74 -36 50 23 -21 50 -20 53 6 20 48 -62 191 -96 258 -62 22 11 30 10 73 -17
39 -24 61 -30 125 -34 99 -5 153 9 198 54 19 20 37 34 38 32 2 -1 7 -21 12
-42 10 -44 34 -61 34 -24 0 13 -18 75 -41 138 -47 135 -79 245 -79 276 0 28
-21 32 -234 45 -93 5 -213 16 -268 24 -116 18 -171 18 -218 2z m348 -107 c26
-30 29 -31 44 -17 9 9 18 22 20 28 6 17 92 27 185 21 l83 -5 16 -56 c8 -31 29
-92 46 -136 l30 -80 -18 -34 c-24 -44 -78 -71 -151 -78 -78 -7 -139 11 -181
53 -19 19 -35 34 -37 34 -1 0 -19 -13 -40 -30 -45 -36 -88 -39 -143 -11 -79
41 -126 124 -120 213 7 97 65 140 181 134 51 -2 60 -6 85 -36z"/>
</g>
</svg>
